inDegrees=no
num_controls=7
num_derivatives=13
num_iterations=146
num_multipliers=7
num_parameters=0
num_slacks=7
num_states=26
objective=6.234536
objective_accelerations=0.720799
objective_balance=0.061825
objective_effort=0.592178
objective_height=4.812559
objective_ligament=0.047175
solver_duration=1521.847259
status=Solve_Succeeded
success=true
DataType=double
version=3
OpenSimVersion=4.4-2022-07-23-0e9fedc
endheader
time	/jointset/ground_pelvis/pelvis_tilt/value	/jointset/ground_pelvis/pelvis_tx/value	/jointset/ground_pelvis/pelvis_ty/value	/jointset/hip_l/hip_flexion_l/value	/jointset/hip_l/hip_adduction_l/value	/jointset/hip_l/hip_rotation_l/value	/jointset/back/lumbar_extension/value	/jointset/patellofemoral_l/patellar_flexion_l/value	/jointset/knee_l/knee_flexion_l/value	/jointset/knee_l/knee_adduction_l/value	/jointset/knee_l/knee_rotation_l/value	/jointset/ankle_l/ankle_angle_l/value	/jointset/subtalar_l/subtalar_angle_l/value	/jointset/ground_pelvis/pelvis_tilt/speed	/jointset/ground_pelvis/pelvis_tx/speed	/jointset/ground_pelvis/pelvis_ty/speed	/jointset/hip_l/hip_flexion_l/speed	/jointset/hip_l/hip_adduction_l/speed	/jointset/hip_l/hip_rotation_l/speed	/jointset/back/lumbar_extension/speed	/jointset/patellofemoral_l/patellar_flexion_l/speed	/jointset/knee_l/knee_flexion_l/speed	/jointset/knee_l/knee_adduction_l/speed	/jointset/knee_l/knee_rotation_l/speed	/jointset/ankle_l/ankle_angle_l/speed	/jointset/subtalar_l/subtalar_angle_l/speed	/forceset/tau_hip_flexion_l	/forceset/tau_hip_adduction_l	/forceset/tau_hip_rotation_l	/forceset/tau_knee_flexion_l	/forceset/tau_ankle_angle_l	/forceset/tau_subtalar_angle_l	/forceset/tau_lumbar_extension	lambda_cid13_p0	lambda_cid13_p1	lambda_cid13_p2	lambda_cid13_p3	lambda_cid13_p4	lambda_cid13_p5	lambda_cid14_p0	/jointset/ground_pelvis/pelvis_tilt/accel	/jointset/ground_pelvis/pelvis_tx/accel	/jointset/ground_pelvis/pelvis_ty/accel	/jointset/hip_l/hip_flexion_l/accel	/jointset/hip_l/hip_adduction_l/accel	/jointset/hip_l/hip_rotation_l/accel	/jointset/back/lumbar_extension/accel	/jointset/patellofemoral_l/patellar_flexion_l/accel	/jointset/knee_l/knee_flexion_l/accel	/jointset/knee_l/knee_adduction_l/accel	/jointset/knee_l/knee_rotation_l/accel	/jointset/ankle_l/ankle_angle_l/accel	/jointset/subtalar_l/subtalar_angle_l/accel	gamma_cid13_p0	gamma_cid13_p1	gamma_cid13_p2	gamma_cid13_p3	gamma_cid13_p4	gamma_cid13_p5	gamma_cid14_p0
1.5	-0.05894324269636207	-0.03850625989829143	0.8266463920683422	0.8365080664598438	-0.3147984857831098	-0.1246704462445528	-0.8132301227179883	0.8468865137386459	0.8468865137386474	-0.0704817151102866	-0.1745202302619916	0.1338782850410777	0.02558977297571098	0.4949401556901986	0.2706380663427916	0.534600112285131	-2.411721310374926	0.0565650346627062	-0.6194465940997822	0.829023918978217	-2.177587890162632	-2.177587890162638	-0.2478102612846786	0.001081694811552316	-0.3960025744387508	-0.07458427942966429	-0.2440360107201198	0.01744966621567295	-0.008360295581380734	-0.219741862521984	0.08391254369250212	0.04943657156389441	0.3067975972566449	-14.36895846996285	-20.58481690576367	4.689800842706526	-12.25043589201997	-664.1621602646553	-76.37213154940713	-12.68806139645292	0.2213009049458035	0.8725494889904352	-0.7301353002248344	-1.00154555185358	0.4677697708191175	-0.5486689391977311	2.278726338771563	-1.123290011283474	-1.123290011283475	-0.1748604741420077	0.06302031084883086	-0.3632298685523313	0.4250459217343368	5.582783207031483e-07	3.118623496111395e-07	-3.113257182076739e-06	-2.920613153327031e-07	6.548216332767506e-07	1.472199338738835e-07	4.260642102405373e-07
1.51	-0.0539830865550705	-0.03575646035050219	0.8319548350238717	0.8123427359227268	-0.3142106729042387	-0.1308891604481865	-0.8048275275534816	0.825056867932854	0.8250568679328553	-0.07297271229259282	-0.174505809090021	0.1299004532821941	0.02486378337775479	0.4970123619661544	0.2792955231146111	0.5269760843883411	-2.421030406496655	0.06101911757561725	-0.6241899471070955	0.8513861618025896	-2.188041034526062	-2.188041034526062	-0.250368353007232	0.001868625498591837	-0.3994687638254871	-0.07056229854972995	-0.2350497249009925	0.01687750917221656	-0.00810060092156986	-0.2158394981797083	0.08393178469245441	0.04876630975898229	0.2984175728501369	-14.05382790619936	-20.43780901889865	4.767918434718208	-12.0727469475602	-658.342498971498	-76.30860939214813	-13.52878213831285	0.1884285981911009	0.8583433143458202	-0.7952543731754722	-0.8483609993511286	0.4378091466064884	-0.4207662050311086	2.198630436190849	-0.9613786402333216	-0.9613786402328418	-0.2931484312501195	0.09585256010499142	-0.3240408622121826	0.3987392305063913	5.659562838780828e-07	4.666362476702012e-07	-3.042727110554754e-06	-2.723589997071026e-07	6.890154734648009e-07	2.558764247851629e-07	4.334857961690683e-07
1.52	-0.04900455872916524	-0.03292088632638115	0.8371836941326795	0.788093760552989	-0.3135776028772226	-0.1371520277266024	-0.7962045785243471	0.8031316802851559	0.8031316802851566	-0.07548866337411217	-0.1744816539886853	0.1258908141517475	0.02417960660047463	0.4986144926129351	0.2877929616091552	0.5186833429407758	-2.42845027689913	0.0656164642917039	-0.6282772090562196	0.8730946919037911	-2.196696258543921	-2.19669625854392	-0.2528010411273096	0.003028480684570505	-0.4023640487513408	-0.06622171529445932	-0.2260634390818652	0.01630535212876019	-0.007840906261758563	-0.2119371338374325	0.08395102569240669	0.04809604795407019	0.290037548443629	-13.73749218746993	-20.29130748686579	4.846457370051355	-11.94797281609394	-652.5445286139512	-76.32840637954961	-14.35463514294512	0.127285779110772	0.8405458335353655	-0.8638780103798424	-0.6237004080028909	0.4964225314542395	-0.4174507275599105	2.147983794137282	-0.7637059421699177	-0.7637059421699171	-0.1497797536468322	0.1376052106366605	-0.249048976375943	0.4887663968015947	5.718310902707907e-07	6.413678372290376e-07	-2.953480349174038e-06	-2.499279533496511e-07	7.255881504056691e-07	3.665653867748622e-07	4.406864622558426e-07
1.53	-0.04401230942009986	-0.03000119784871986	0.8423263866548313	0.7637798344375236	-0.3128981439868891	-0.143453430585389	-0.7873680708673552	0.7811288659647028	0.7811288659647032	-0.0780281114578877	-0.1744449364198532	0.1218550359409962	0.02354008419036758	0.4997535709695672	0.2961116364049465	0.5097505468618594	-2.434015749757556	0.07027392422238732	-0.6319302106968261	0.8940815135638203	-2.203553886140098	-2.203553886140099	-0.2550736506305894	0.004328745827450953	-0.4046932545210034	-0.06165672985394789	-0.2169475349727515	0.01545451018408612	-0.00753034550653698	-0.2084331355931883	0.08427878382185851	0.04718788797286236	0.2815483431746564	-13.35049123761389	-20.04100059651908	4.893755633605254	-11.78276020188305	-646.999788710379	-76.22428692536346	-15.16437343499571	0.09499939455194392	0.8225214674857786	-0.9235154766527892	-0.4750234171549847	0.4504653286664113	-0.3277796700586301	2.055232462318828	-0.5999735336804221	-0.599973533680803	-0.263694303230104	0.1277474139740246	-0.2100684630606212	0.4444447887571241	5.757900425823828e-07	8.373044740063848e-07	-2.84434710481842e-06	-2.245976305896078e-07	7.646883413964065e-07	4.794138492853824e-07	4.476524010107503e-07
